<mxfile host="app.diagrams.net" agent="Mozilla/5.0 (Macintosh; Intel Mac OS X 10_15_7) AppleWebKit/537.36 (KHTML, like Gecko) Chrome/139.0.0.0 Safari/537.36" version="28.1.0">
  <diagram name="Page-1" id="JDQV7JlKgYoITzz3pqc2">
    <mxGraphModel dx="1366" dy="749" grid="1" gridSize="10" guides="1" tooltips="1" connect="1" arrows="1" fold="1" page="1" pageScale="1" pageWidth="850" pageHeight="1100" math="0" shadow="0">
      <root>
        <mxCell id="0" />
        <mxCell id="1" parent="0" />
        <mxCell id="pr6j3aNBwpCI1W8KptXL-4" value="Bank" style="swimlane;fontStyle=1;align=center;verticalAlign=top;childLayout=stackLayout;horizontal=1;startSize=26;horizontalStack=0;resizeParent=1;resizeParentMax=0;resizeLast=0;collapsible=1;marginBottom=0;whiteSpace=wrap;html=1;" vertex="1" parent="1">
          <mxGeometry x="190" y="40" width="160" height="130" as="geometry" />
        </mxCell>
        <mxCell id="pr6j3aNBwpCI1W8KptXL-5" value="+code&lt;div&gt;+address&lt;/div&gt;" style="text;strokeColor=none;fillColor=none;align=left;verticalAlign=top;spacingLeft=4;spacingRight=4;overflow=hidden;rotatable=0;points=[[0,0.5],[1,0.5]];portConstraint=eastwest;whiteSpace=wrap;html=1;" vertex="1" parent="pr6j3aNBwpCI1W8KptXL-4">
          <mxGeometry y="26" width="160" height="44" as="geometry" />
        </mxCell>
        <mxCell id="pr6j3aNBwpCI1W8KptXL-6" value="" style="line;strokeWidth=1;fillColor=none;align=left;verticalAlign=middle;spacingTop=-1;spacingLeft=3;spacingRight=3;rotatable=0;labelPosition=right;points=[];portConstraint=eastwest;strokeColor=inherit;" vertex="1" parent="pr6j3aNBwpCI1W8KptXL-4">
          <mxGeometry y="70" width="160" height="8" as="geometry" />
        </mxCell>
        <mxCell id="pr6j3aNBwpCI1W8KptXL-7" value="+manages()&lt;div&gt;+maintains()&lt;/div&gt;" style="text;strokeColor=none;fillColor=none;align=left;verticalAlign=top;spacingLeft=4;spacingRight=4;overflow=hidden;rotatable=0;points=[[0,0.5],[1,0.5]];portConstraint=eastwest;whiteSpace=wrap;html=1;" vertex="1" parent="pr6j3aNBwpCI1W8KptXL-4">
          <mxGeometry y="78" width="160" height="52" as="geometry" />
        </mxCell>
        <mxCell id="pr6j3aNBwpCI1W8KptXL-9" value="Customer" style="swimlane;fontStyle=1;align=center;verticalAlign=top;childLayout=stackLayout;horizontal=1;startSize=26;horizontalStack=0;resizeParent=1;resizeParentMax=0;resizeLast=0;collapsible=1;marginBottom=0;whiteSpace=wrap;html=1;" vertex="1" parent="1">
          <mxGeometry x="30" y="230" width="160" height="140" as="geometry" />
        </mxCell>
        <mxCell id="pr6j3aNBwpCI1W8KptXL-10" value="+name&lt;div&gt;+address&lt;/div&gt;&lt;div&gt;+dob&lt;/div&gt;&lt;div&gt;+card number&lt;/div&gt;&lt;div&gt;+pin&lt;/div&gt;" style="text;strokeColor=none;fillColor=none;align=left;verticalAlign=top;spacingLeft=4;spacingRight=4;overflow=hidden;rotatable=0;points=[[0,0.5],[1,0.5]];portConstraint=eastwest;whiteSpace=wrap;html=1;" vertex="1" parent="pr6j3aNBwpCI1W8KptXL-9">
          <mxGeometry y="26" width="160" height="74" as="geometry" />
        </mxCell>
        <mxCell id="pr6j3aNBwpCI1W8KptXL-11" value="" style="line;strokeWidth=1;fillColor=none;align=left;verticalAlign=middle;spacingTop=-1;spacingLeft=3;spacingRight=3;rotatable=0;labelPosition=right;points=[];portConstraint=eastwest;strokeColor=inherit;" vertex="1" parent="pr6j3aNBwpCI1W8KptXL-9">
          <mxGeometry y="100" width="160" height="8" as="geometry" />
        </mxCell>
        <mxCell id="pr6j3aNBwpCI1W8KptXL-12" value="+verifyPassword" style="text;strokeColor=none;fillColor=none;align=left;verticalAlign=top;spacingLeft=4;spacingRight=4;overflow=hidden;rotatable=0;points=[[0,0.5],[1,0.5]];portConstraint=eastwest;whiteSpace=wrap;html=1;" vertex="1" parent="pr6j3aNBwpCI1W8KptXL-9">
          <mxGeometry y="108" width="160" height="32" as="geometry" />
        </mxCell>
        <mxCell id="pr6j3aNBwpCI1W8KptXL-17" value="ATM" style="swimlane;fontStyle=1;align=center;verticalAlign=top;childLayout=stackLayout;horizontal=1;startSize=26;horizontalStack=0;resizeParent=1;resizeParentMax=0;resizeLast=0;collapsible=1;marginBottom=0;whiteSpace=wrap;html=1;" vertex="1" parent="1">
          <mxGeometry x="410" y="140" width="160" height="110" as="geometry" />
        </mxCell>
        <mxCell id="pr6j3aNBwpCI1W8KptXL-18" value="+location&lt;div&gt;+managabilty&lt;/div&gt;" style="text;strokeColor=none;fillColor=none;align=left;verticalAlign=top;spacingLeft=4;spacingRight=4;overflow=hidden;rotatable=0;points=[[0,0.5],[1,0.5]];portConstraint=eastwest;whiteSpace=wrap;html=1;" vertex="1" parent="pr6j3aNBwpCI1W8KptXL-17">
          <mxGeometry y="26" width="160" height="34" as="geometry" />
        </mxCell>
        <mxCell id="pr6j3aNBwpCI1W8KptXL-19" value="" style="line;strokeWidth=1;fillColor=none;align=left;verticalAlign=middle;spacingTop=-1;spacingLeft=3;spacingRight=3;rotatable=0;labelPosition=right;points=[];portConstraint=eastwest;strokeColor=inherit;" vertex="1" parent="pr6j3aNBwpCI1W8KptXL-17">
          <mxGeometry y="60" width="160" height="8" as="geometry" />
        </mxCell>
        <mxCell id="pr6j3aNBwpCI1W8KptXL-20" value="+identifies()&lt;div&gt;+transaction&lt;/div&gt;" style="text;strokeColor=none;fillColor=none;align=left;verticalAlign=top;spacingLeft=4;spacingRight=4;overflow=hidden;rotatable=0;points=[[0,0.5],[1,0.5]];portConstraint=eastwest;whiteSpace=wrap;html=1;" vertex="1" parent="pr6j3aNBwpCI1W8KptXL-17">
          <mxGeometry y="68" width="160" height="42" as="geometry" />
        </mxCell>
        <mxCell id="pr6j3aNBwpCI1W8KptXL-39" value="" style="endArrow=diamondThin;endFill=0;endSize=24;html=1;rounded=0;exitX=0.533;exitY=-0.011;exitDx=0;exitDy=0;exitPerimeter=0;entryX=1.015;entryY=0.791;entryDx=0;entryDy=0;entryPerimeter=0;" edge="1" parent="1">
          <mxGeometry width="160" relative="1" as="geometry">
            <mxPoint x="492.28" y="139.78999999999996" as="sourcePoint" />
            <mxPoint x="349.39999999999986" y="101.80399999999997" as="targetPoint" />
            <Array as="points">
              <mxPoint x="492" y="101" />
            </Array>
          </mxGeometry>
        </mxCell>
        <mxCell id="pr6j3aNBwpCI1W8KptXL-44" value="" style="endArrow=diamondThin;endFill=0;endSize=24;html=1;rounded=0;" edge="1" parent="1">
          <mxGeometry width="160" relative="1" as="geometry">
            <mxPoint x="271" y="290" as="sourcePoint" />
            <mxPoint x="271" y="170" as="targetPoint" />
          </mxGeometry>
        </mxCell>
        <mxCell id="pr6j3aNBwpCI1W8KptXL-47" value="" style="endArrow=open;endFill=1;endSize=12;html=1;rounded=0;" edge="1" parent="1">
          <mxGeometry width="160" relative="1" as="geometry">
            <mxPoint x="190" y="290" as="sourcePoint" />
            <mxPoint x="407" y="200" as="targetPoint" />
            <Array as="points">
              <mxPoint x="350" y="290" />
              <mxPoint x="350" y="200" />
            </Array>
          </mxGeometry>
        </mxCell>
        <mxCell id="pr6j3aNBwpCI1W8KptXL-52" value="Account" style="swimlane;fontStyle=1;align=center;verticalAlign=top;childLayout=stackLayout;horizontal=1;startSize=26;horizontalStack=0;resizeParent=1;resizeParentMax=0;resizeLast=0;collapsible=1;marginBottom=0;whiteSpace=wrap;html=1;" vertex="1" parent="1">
          <mxGeometry x="380" y="330" width="160" height="120" as="geometry" />
        </mxCell>
        <mxCell id="pr6j3aNBwpCI1W8KptXL-53" value="+number&lt;div&gt;+balance&lt;/div&gt;" style="text;strokeColor=none;fillColor=none;align=left;verticalAlign=top;spacingLeft=4;spacingRight=4;overflow=hidden;rotatable=0;points=[[0,0.5],[1,0.5]];portConstraint=eastwest;whiteSpace=wrap;html=1;" vertex="1" parent="pr6j3aNBwpCI1W8KptXL-52">
          <mxGeometry y="26" width="160" height="34" as="geometry" />
        </mxCell>
        <mxCell id="pr6j3aNBwpCI1W8KptXL-54" value="" style="line;strokeWidth=1;fillColor=none;align=left;verticalAlign=middle;spacingTop=-1;spacingLeft=3;spacingRight=3;rotatable=0;labelPosition=right;points=[];portConstraint=eastwest;strokeColor=inherit;" vertex="1" parent="pr6j3aNBwpCI1W8KptXL-52">
          <mxGeometry y="60" width="160" height="8" as="geometry" />
        </mxCell>
        <mxCell id="pr6j3aNBwpCI1W8KptXL-55" value="+deposit()&lt;div&gt;+withdraw&lt;/div&gt;&lt;div&gt;createTransaction()&lt;/div&gt;" style="text;strokeColor=none;fillColor=none;align=left;verticalAlign=top;spacingLeft=4;spacingRight=4;overflow=hidden;rotatable=0;points=[[0,0.5],[1,0.5]];portConstraint=eastwest;whiteSpace=wrap;html=1;" vertex="1" parent="pr6j3aNBwpCI1W8KptXL-52">
          <mxGeometry y="68" width="160" height="52" as="geometry" />
        </mxCell>
        <mxCell id="pr6j3aNBwpCI1W8KptXL-65" value="" style="endArrow=none;html=1;rounded=0;entryX=0.5;entryY=0;entryDx=0;entryDy=0;" edge="1" parent="1" target="pr6j3aNBwpCI1W8KptXL-52">
          <mxGeometry relative="1" as="geometry">
            <mxPoint x="350" y="290" as="sourcePoint" />
            <mxPoint x="510" y="290" as="targetPoint" />
            <Array as="points">
              <mxPoint x="460" y="290" />
            </Array>
          </mxGeometry>
        </mxCell>
        <mxCell id="pr6j3aNBwpCI1W8KptXL-66" value="ATM Transaction" style="swimlane;fontStyle=1;align=center;verticalAlign=top;childLayout=stackLayout;horizontal=1;startSize=26;horizontalStack=0;resizeParent=1;resizeParentMax=0;resizeLast=0;collapsible=1;marginBottom=0;whiteSpace=wrap;html=1;" vertex="1" parent="1">
          <mxGeometry x="680" y="300" width="160" height="160" as="geometry" />
        </mxCell>
        <mxCell id="pr6j3aNBwpCI1W8KptXL-67" value="+transaction ID&lt;div&gt;+date&lt;/div&gt;&lt;div&gt;+type&lt;/div&gt;&lt;div&gt;+amount&lt;/div&gt;&lt;div&gt;+post balance&lt;/div&gt;" style="text;strokeColor=none;fillColor=none;align=left;verticalAlign=top;spacingLeft=4;spacingRight=4;overflow=hidden;rotatable=0;points=[[0,0.5],[1,0.5]];portConstraint=eastwest;whiteSpace=wrap;html=1;" vertex="1" parent="pr6j3aNBwpCI1W8KptXL-66">
          <mxGeometry y="26" width="160" height="94" as="geometry" />
        </mxCell>
        <mxCell id="pr6j3aNBwpCI1W8KptXL-68" value="" style="line;strokeWidth=1;fillColor=none;align=left;verticalAlign=middle;spacingTop=-1;spacingLeft=3;spacingRight=3;rotatable=0;labelPosition=right;points=[];portConstraint=eastwest;strokeColor=inherit;" vertex="1" parent="pr6j3aNBwpCI1W8KptXL-66">
          <mxGeometry y="120" width="160" height="18" as="geometry" />
        </mxCell>
        <mxCell id="pr6j3aNBwpCI1W8KptXL-69" value="+modifies" style="text;strokeColor=none;fillColor=none;align=left;verticalAlign=top;spacingLeft=4;spacingRight=4;overflow=hidden;rotatable=0;points=[[0,0.5],[1,0.5]];portConstraint=eastwest;whiteSpace=wrap;html=1;" vertex="1" parent="pr6j3aNBwpCI1W8KptXL-66">
          <mxGeometry y="138" width="160" height="22" as="geometry" />
        </mxCell>
        <mxCell id="pr6j3aNBwpCI1W8KptXL-71" value="" style="endArrow=none;html=1;rounded=0;exitX=1.004;exitY=0.679;exitDx=0;exitDy=0;exitPerimeter=0;entryX=0.002;entryY=0.559;entryDx=0;entryDy=0;entryPerimeter=0;" edge="1" parent="1" source="pr6j3aNBwpCI1W8KptXL-53" target="pr6j3aNBwpCI1W8KptXL-67">
          <mxGeometry relative="1" as="geometry">
            <mxPoint x="550" y="390" as="sourcePoint" />
            <mxPoint x="610" y="379.74" as="targetPoint" />
          </mxGeometry>
        </mxCell>
        <mxCell id="pr6j3aNBwpCI1W8KptXL-72" value="Account Transaction" style="text;html=1;align=center;verticalAlign=middle;whiteSpace=wrap;rounded=0;" vertex="1" parent="1">
          <mxGeometry x="590" y="350" width="60" height="30" as="geometry" />
        </mxCell>
        <mxCell id="pr6j3aNBwpCI1W8KptXL-80" value="Current Account" style="swimlane;fontStyle=1;align=center;verticalAlign=top;childLayout=stackLayout;horizontal=1;startSize=26;horizontalStack=0;resizeParent=1;resizeParentMax=0;resizeLast=0;collapsible=1;marginBottom=0;whiteSpace=wrap;html=1;" vertex="1" parent="1">
          <mxGeometry x="240" y="560" width="160" height="110" as="geometry" />
        </mxCell>
        <mxCell id="pr6j3aNBwpCI1W8KptXL-81" value="+account no&lt;br&gt;+balance" style="text;strokeColor=none;fillColor=none;align=left;verticalAlign=top;spacingLeft=4;spacingRight=4;overflow=hidden;rotatable=0;points=[[0,0.5],[1,0.5]];portConstraint=eastwest;whiteSpace=wrap;html=1;" vertex="1" parent="pr6j3aNBwpCI1W8KptXL-80">
          <mxGeometry y="26" width="160" height="44" as="geometry" />
        </mxCell>
        <mxCell id="pr6j3aNBwpCI1W8KptXL-82" value="" style="line;strokeWidth=1;fillColor=none;align=left;verticalAlign=middle;spacingTop=-1;spacingLeft=3;spacingRight=3;rotatable=0;labelPosition=right;points=[];portConstraint=eastwest;strokeColor=inherit;" vertex="1" parent="pr6j3aNBwpCI1W8KptXL-80">
          <mxGeometry y="70" width="160" height="18" as="geometry" />
        </mxCell>
        <mxCell id="pr6j3aNBwpCI1W8KptXL-83" value="+withdraw()" style="text;strokeColor=none;fillColor=none;align=left;verticalAlign=top;spacingLeft=4;spacingRight=4;overflow=hidden;rotatable=0;points=[[0,0.5],[1,0.5]];portConstraint=eastwest;whiteSpace=wrap;html=1;" vertex="1" parent="pr6j3aNBwpCI1W8KptXL-80">
          <mxGeometry y="88" width="160" height="22" as="geometry" />
        </mxCell>
        <mxCell id="pr6j3aNBwpCI1W8KptXL-89" value="Saving Account" style="swimlane;fontStyle=1;align=center;verticalAlign=top;childLayout=stackLayout;horizontal=1;startSize=26;horizontalStack=0;resizeParent=1;resizeParentMax=0;resizeLast=0;collapsible=1;marginBottom=0;whiteSpace=wrap;html=1;" vertex="1" parent="1">
          <mxGeometry x="570" y="560" width="160" height="110" as="geometry" />
        </mxCell>
        <mxCell id="pr6j3aNBwpCI1W8KptXL-90" value="+account no&lt;br&gt;+balance" style="text;strokeColor=none;fillColor=none;align=left;verticalAlign=top;spacingLeft=4;spacingRight=4;overflow=hidden;rotatable=0;points=[[0,0.5],[1,0.5]];portConstraint=eastwest;whiteSpace=wrap;html=1;" vertex="1" parent="pr6j3aNBwpCI1W8KptXL-89">
          <mxGeometry y="26" width="160" height="44" as="geometry" />
        </mxCell>
        <mxCell id="pr6j3aNBwpCI1W8KptXL-91" value="&#xa;" style="line;strokeWidth=1;fillColor=none;align=left;verticalAlign=middle;spacingTop=-1;spacingLeft=3;spacingRight=3;rotatable=0;labelPosition=right;points=[];portConstraint=eastwest;strokeColor=inherit;" vertex="1" parent="pr6j3aNBwpCI1W8KptXL-89">
          <mxGeometry y="70" width="160" height="18" as="geometry" />
        </mxCell>
        <mxCell id="pr6j3aNBwpCI1W8KptXL-109" value="&lt;div&gt;&lt;br&gt;&lt;/div&gt;" style="text;strokeColor=none;fillColor=none;align=left;verticalAlign=top;spacingLeft=4;spacingRight=4;overflow=hidden;rotatable=0;points=[[0,0.5],[1,0.5]];portConstraint=eastwest;whiteSpace=wrap;html=1;" vertex="1" parent="pr6j3aNBwpCI1W8KptXL-89">
          <mxGeometry y="88" width="160" height="22" as="geometry" />
        </mxCell>
        <mxCell id="pr6j3aNBwpCI1W8KptXL-93" value="" style="endArrow=none;html=1;rounded=0;entryX=-0.014;entryY=0.774;entryDx=0;entryDy=0;entryPerimeter=0;" edge="1" parent="1" target="pr6j3aNBwpCI1W8KptXL-90">
          <mxGeometry relative="1" as="geometry">
            <mxPoint x="400" y="620" as="sourcePoint" />
            <mxPoint x="560" y="620" as="targetPoint" />
          </mxGeometry>
        </mxCell>
        <mxCell id="pr6j3aNBwpCI1W8KptXL-94" value="1" style="resizable=0;html=1;whiteSpace=wrap;align=left;verticalAlign=bottom;" connectable="0" vertex="1" parent="pr6j3aNBwpCI1W8KptXL-93">
          <mxGeometry x="-1" relative="1" as="geometry" />
        </mxCell>
        <mxCell id="pr6j3aNBwpCI1W8KptXL-95" value="1" style="resizable=0;html=1;whiteSpace=wrap;align=right;verticalAlign=bottom;" connectable="0" vertex="1" parent="pr6j3aNBwpCI1W8KptXL-93">
          <mxGeometry x="1" relative="1" as="geometry" />
        </mxCell>
        <mxCell id="pr6j3aNBwpCI1W8KptXL-96" value="Savings-Checking" style="text;html=1;align=center;verticalAlign=middle;whiteSpace=wrap;rounded=0;" vertex="1" parent="1">
          <mxGeometry x="450" y="589" width="60" height="30" as="geometry" />
        </mxCell>
        <mxCell id="pr6j3aNBwpCI1W8KptXL-98" value="" style="endArrow=none;html=1;rounded=0;exitX=0.5;exitY=0;exitDx=0;exitDy=0;entryX=0.443;entryY=-0.009;entryDx=0;entryDy=0;entryPerimeter=0;" edge="1" parent="1" source="pr6j3aNBwpCI1W8KptXL-80" target="pr6j3aNBwpCI1W8KptXL-89">
          <mxGeometry relative="1" as="geometry">
            <mxPoint x="385" y="520" as="sourcePoint" />
            <mxPoint x="545" y="520" as="targetPoint" />
            <Array as="points">
              <mxPoint x="320" y="520" />
              <mxPoint x="640" y="520" />
            </Array>
          </mxGeometry>
        </mxCell>
        <mxCell id="pr6j3aNBwpCI1W8KptXL-103" value="" style="endArrow=open;endFill=1;endSize=12;html=1;rounded=0;entryX=0.587;entryY=0.992;entryDx=0;entryDy=0;entryPerimeter=0;" edge="1" parent="1">
          <mxGeometry width="160" relative="1" as="geometry">
            <mxPoint x="504" y="520" as="sourcePoint" />
            <mxPoint x="477.9200000000001" y="449.58400000000006" as="targetPoint" />
            <Array as="points">
              <mxPoint x="478" y="520" />
              <mxPoint x="478" y="480" />
            </Array>
          </mxGeometry>
        </mxCell>
        <mxCell id="pr6j3aNBwpCI1W8KptXL-104" value="" style="endArrow=none;html=1;rounded=0;entryX=-0.014;entryY=0.774;entryDx=0;entryDy=0;entryPerimeter=0;exitX=1.008;exitY=0.983;exitDx=0;exitDy=0;exitPerimeter=0;" edge="1" parent="1" source="pr6j3aNBwpCI1W8KptXL-10">
          <mxGeometry relative="1" as="geometry">
            <mxPoint x="212" y="400" as="sourcePoint" />
            <mxPoint x="380" y="400" as="targetPoint" />
            <Array as="points">
              <mxPoint x="270" y="330" />
              <mxPoint x="270" y="400" />
            </Array>
          </mxGeometry>
        </mxCell>
        <mxCell id="pr6j3aNBwpCI1W8KptXL-106" value="1,2" style="resizable=0;html=1;whiteSpace=wrap;align=right;verticalAlign=bottom;" connectable="0" vertex="1" parent="pr6j3aNBwpCI1W8KptXL-104">
          <mxGeometry x="1" relative="1" as="geometry">
            <mxPoint x="-20" as="offset" />
          </mxGeometry>
        </mxCell>
        <mxCell id="pr6j3aNBwpCI1W8KptXL-107" value="1" style="resizable=0;html=1;whiteSpace=wrap;align=left;verticalAlign=bottom;" connectable="0" vertex="1" parent="pr6j3aNBwpCI1W8KptXL-104">
          <mxGeometry x="-1" relative="1" as="geometry">
            <mxPoint x="9" as="offset" />
          </mxGeometry>
        </mxCell>
        <mxCell id="pr6j3aNBwpCI1W8KptXL-108" value="has" style="text;html=1;align=center;verticalAlign=middle;whiteSpace=wrap;rounded=0;" vertex="1" parent="1">
          <mxGeometry x="200" y="320" width="60" height="30" as="geometry" />
        </mxCell>
        <mxCell id="pr6j3aNBwpCI1W8KptXL-110" value="1" style="resizable=0;html=1;whiteSpace=wrap;align=left;verticalAlign=bottom;" connectable="0" vertex="1" parent="1">
          <mxGeometry x="540" y="400" as="geometry" />
        </mxCell>
      </root>
    </mxGraphModel>
  </diagram>
</mxfile>
